<svg xmlns="http://www.w3.org/2000/svg" viewBox="0 0 1024 1024">
  <defs>
    <linearGradient id="bg" x1="160" y1="96" x2="880" y2="928" gradientUnits="userSpaceOnUse">
      <stop offset="0" stop-color="#0A84FF"/>
      <stop offset="0.58" stop-color="#007AFF"/>
      <stop offset="1" stop-color="#0A3D91"/>
    </linearGradient>
    <linearGradient id="mark" x1="256" y1="256" x2="768" y2="808" gradientUnits="userSpaceOnUse">
      <stop offset="0" stop-color="#FFFFFF"/>
      <stop offset="1" stop-color="#DDF7EA"/>
    </linearGradient>
  </defs>
  <rect width="1024" height="1024" rx="220" fill="url(#bg)"/>
  <circle cx="782" cy="226" r="76" fill="#34C759"/>
  <path d="M316 388h392l-34 352c-7 75-54 124-128 124h-68c-74 0-121-49-128-124L316 388Z" fill="url(#mark)"/>
  <path d="M390 390c0-88 48-158 122-158s122 70 122 158" fill="none" stroke="#FFFFFF" stroke-width="54" stroke-linecap="round"/>
  <path d="M398 512h228v58H398z" rx="29" fill="#007AFF"/>
  <path d="M398 610h228v58H398z" rx="29" fill="#34C759"/>
  <text x="512" y="792" text-anchor="middle" font-family="Segoe UI, Arial, sans-serif" font-size="126" font-weight="900" fill="#1C1E21">GVI</text>
</svg>
